<svg width="21" height="21" viewBox="0 0 21 21" fill="none" xmlns="http://www.w3.org/2000/svg">
<path opacity="0.7" d="M10.3327 7.16709L3.66602 13.8338V17.1671L6.99935 17.1671L13.666 10.5004M10.3327 7.16709L12.7232 4.77654L12.7246 4.77513C13.0537 4.44606 13.2185 4.28123 13.4085 4.2195C13.5759 4.16512 13.7562 4.16512 13.9236 4.2195C14.1134 4.28119 14.2781 4.44583 14.6067 4.77443L16.0565 6.22426C16.3865 6.55427 16.5516 6.71936 16.6134 6.90963C16.6678 7.077 16.6678 7.25729 16.6134 7.42466C16.5516 7.61479 16.3868 7.77963 16.0573 8.10917L16.0565 8.10988L13.666 10.5004M10.3327 7.16709L13.666 10.5004" stroke="#007AFF" stroke-width="1.5" stroke-linecap="round" stroke-linejoin="round"/>
</svg>
