<svg width="24" height="25" viewBox="0 0 24 25" fill="none" xmlns="http://www.w3.org/2000/svg">
<path d="M3 11.875V20.275C3 20.8351 3 21.1146 3.10899 21.3285C3.20487 21.5167 3.35774 21.6702 3.5459 21.7661C3.7596 21.875 4.03901 21.875 4.59797 21.875L15.4014 21.875C15.9603 21.875 16.2408 21.875 16.4545 21.7661C16.6427 21.6702 16.7948 21.5171 16.8906 21.3289C16.9996 21.115 16.9996 20.835 16.9996 20.2749L17.0011 15.8756M3 11.875H10M3 11.875L3 11.4751C3 10.9151 3 10.6348 3.10899 10.4209C3.20486 10.2327 3.35774 10.0799 3.5459 9.98398C3.75977 9.87501 4.03975 9.87501 4.59961 9.87501L7 9.875M10 11.875H15.4C15.96 11.875 16.242 11.875 16.456 11.984C16.6441 12.0799 16.7948 12.2327 16.8906 12.4209C16.9996 12.6348 16.9996 12.9148 16.9996 13.4749L17.0011 15.8756M10 11.875L8.9248 10.4927C8.74861 10.2661 8.66017 10.1524 8.5498 10.0708C8.45201 9.99847 8.34303 9.94479 8.2259 9.912C8.09373 9.87501 7.9488 9.87501 7.66191 9.87501L7 9.875M7 5.875H19.4C19.9601 5.875 20.242 5.875 20.4559 5.98399C20.6441 6.07987 20.7948 6.23274 20.8906 6.4209C20.9996 6.63481 20.9996 6.91484 20.9996 7.47489V14.2749C20.9996 14.835 20.9996 15.115 20.8906 15.3289C20.7948 15.5171 20.6432 15.6702 20.4551 15.7661C20.2414 15.875 19.9613 15.875 19.4023 15.875L17.0011 15.8756M7 5.875V9.875M7 5.875L7 5.4751C7 4.91514 7 4.63479 7.10899 4.4209C7.20486 4.23274 7.35774 4.07987 7.5459 3.98399C7.75981 3.875 8.03956 3.875 8.59961 3.875H11.6615C11.9487 3.875 12.0913 3.875 12.2236 3.91201C12.3407 3.9448 12.452 3.99847 12.5498 4.0708C12.6602 4.15243 12.7486 4.26615 12.9248 4.49268L13.9999 5.87498" stroke="white" stroke-width="2" stroke-linecap="round" stroke-linejoin="round"/>
</svg>
