<svg width="24" height="25" viewBox="0 0 24 25" fill="none" xmlns="http://www.w3.org/2000/svg">
<path d="M3 12.875H8M3 12.875C3 17.8456 7.02944 21.875 12 21.875M3 12.875C3 7.90444 7.02944 3.875 12 3.875M8 12.875H16M8 12.875C8 17.8456 9.79086 21.875 12 21.875M8 12.875C8 7.90444 9.79086 3.875 12 3.875M16 12.875H21M16 12.875C16 7.90444 14.2091 3.875 12 3.875M16 12.875C16 17.8456 14.2091 21.875 12 21.875M21 12.875C21 7.90444 16.9706 3.875 12 3.875M21 12.875C21 17.8456 16.9706 21.875 12 21.875" stroke="white" stroke-width="2" stroke-linecap="round" stroke-linejoin="round"/>
</svg>
