<svg width="24" height="25" viewBox="0 0 24 25" fill="none" xmlns="http://www.w3.org/2000/svg">
<path d="M9 21.875H15M12 3.875C8.68629 3.875 6 6.56129 6 9.875C6 11.0895 6.36084 12.2197 6.98117 13.1643C7.93507 14.6168 8.41161 15.3426 8.47352 15.4511C9.02428 16.416 8.92287 16.0757 8.99219 17.1846C8.99998 17.3092 9 17.4979 9 17.875C9 18.4273 9.44772 18.875 10 18.875L14 18.875C14.5523 18.875 15 18.4273 15 17.875C15 17.4979 15 17.3092 15.0078 17.1846C15.0771 16.0757 14.9751 16.416 15.5259 15.4511C15.5878 15.3426 16.0651 14.6168 17.019 13.1643C17.6394 12.2197 18.0002 11.0895 18.0002 9.875C18.0002 6.56129 15.3137 3.875 12 3.875Z" stroke="#FFFEF7" stroke-width="2" stroke-linecap="round" stroke-linejoin="round"/>
</svg>
