<svg width="1376" height="250" viewBox="0 0 1376 250" fill="none" xmlns="http://www.w3.org/2000/svg">
<path fill-rule="evenodd" clip-rule="evenodd" d="M0 27.3658V30.4653H3.84383C8.86922 30.4653 12.8626 31.9441 15.824 34.8943C18.7779 37.8445 20.2586 41.788 20.2586 46.71V227.335C20.2586 232.257 18.7779 236.246 15.824 239.3C12.8701 242.251 8.8767 243.729 3.84383 243.729H0V246.68H160.446V173.127H158.965C157.687 179.43 156.55 184.748 155.563 189.08C154.576 193.315 153.2 198.14 151.42 203.555C149.745 208.872 147.92 213.301 145.946 216.849C144.076 220.397 141.706 224.034 138.849 227.776C135.992 231.421 132.784 234.326 129.239 236.492C125.792 238.561 121.649 240.279 116.818 241.66C112.084 243.042 106.857 243.729 101.143 243.729H51.7496V46.71C51.7496 41.8851 53.2303 37.9939 56.1842 35.0437C59.2428 31.989 63.2362 30.4653 68.1643 30.4653H72.0082V27.3658H0Z" fill="#FFFEF7"/>
<path fill-rule="evenodd" clip-rule="evenodd" d="M171.686 27.3658V30.4653H175.679C180.704 30.4653 184.698 31.9441 187.659 34.8943C190.621 37.8445 192.094 41.788 192.094 46.71V172.836C192.094 184.942 194.113 195.922 198.159 205.773C202.302 215.52 207.918 223.593 215.015 229.994C222.209 236.298 230.592 241.168 240.157 244.618C249.818 247.964 260.221 249.637 271.356 249.637C292.452 249.637 309.016 243.976 321.041 232.653C333.171 221.33 339.229 206.266 339.229 187.459V65.4641C339.229 53.3572 341.053 44.4917 344.703 38.8827C348.449 33.2736 353.377 30.4653 359.487 30.4653V27.3658H315.567V30.4653C321.774 30.4653 326.755 33.2736 330.501 38.8827C334.248 44.4917 336.118 53.3572 336.118 65.4641V184.651C336.118 201.389 330.987 214.877 320.735 225.117C310.482 235.26 296.879 240.331 279.918 240.331C262.958 240.331 249.205 235.26 238.96 225.117C228.707 214.974 223.577 201.486 223.577 184.651V46.71C223.577 41.788 225.058 37.852 228.012 34.8943C230.966 31.9441 234.914 30.4653 239.842 30.4653H243.836V27.3658H171.671H171.686Z" fill="#FFFEF7"/>
<path fill-rule="evenodd" clip-rule="evenodd" d="M380.045 27.3658V30.4653C386.155 30.4653 391.038 33.2736 394.688 38.8827C398.434 44.4917 400.311 53.3572 400.311 65.4641V208.574C400.311 220.584 398.434 229.449 394.688 235.155C391.038 240.869 386.163 243.722 380.045 243.722V246.672H423.965V243.722C417.855 243.722 412.92 240.869 409.181 235.155C405.434 229.442 403.564 220.584 403.564 208.574V48.6294L485.638 196.176L575.991 33.7143V227.335C575.991 232.16 574.465 236.096 571.407 239.151C568.445 242.206 564.504 243.729 559.576 243.729H555.732V246.68H627.748V243.729H623.754C618.729 243.729 614.736 242.251 611.774 239.3C608.917 236.246 607.489 232.257 607.489 227.335V46.71C607.489 41.788 608.917 37.852 611.774 34.8943C614.736 31.9441 618.722 30.4653 623.754 30.4653H627.748V27.3658H575.991L502.053 160.729L427.226 27.3658H380.045Z" fill="#FFFEF7"/>
<path fill-rule="evenodd" clip-rule="evenodd" d="M794.692 246.687H838.612V243.737C832.502 243.737 827.574 240.884 823.828 235.17C820.081 229.456 818.204 220.598 818.204 208.588V48.928L941.834 246.687H962.385V65.4639C962.385 53.357 964.262 44.4915 968.008 38.8825C971.755 33.2734 976.683 30.4651 982.793 30.4651V27.3656H938.873V30.4651C945.087 30.4651 950.061 33.2734 953.807 38.8825C957.554 44.4915 959.431 53.357 959.431 65.4639V215.221L841.573 27.3581H794.692V30.4577C800.802 30.4577 805.685 33.2659 809.335 38.875C813.081 44.4841 814.951 53.3495 814.951 65.4564V208.566C814.951 220.576 813.081 229.441 809.335 235.147C805.685 240.861 800.802 243.714 794.692 243.714V246.687Z" fill="#FFFEF7"/>
<path fill-rule="evenodd" clip-rule="evenodd" d="M1215.4 243.729C1210.57 243.729 1205.99 242.251 1201.65 239.3C1197.41 236.246 1194.21 232.257 1192.04 227.335L1109.08 27.3658H1105.83L1030.41 208.581C1025.38 220.591 1019.77 229.456 1013.55 235.163C1007.44 240.876 1001.32 243.729 995.215 243.729V246.687H1039.43V243.729C1035.49 243.729 1032.48 242.594 1030.41 240.331C1028.44 238.068 1027.6 234.274 1027.89 228.956C1028.29 223.541 1030.21 216.745 1033.66 208.574L1039.43 194.988H1144.87L1158.17 227.335C1160.34 232.16 1160.59 236.096 1158.91 239.151C1157.24 242.206 1153.89 243.729 1148.86 243.729H1144.87V246.687H1219.4V243.729H1215.4ZM1040.62 191.888L1092.22 68.2724L1143.69 191.888H1040.62Z" fill="#FFFEF7"/>
<path fill-rule="evenodd" clip-rule="evenodd" d="M1200.91 100.911H1202.54C1203.82 94.6073 1204.96 89.3418 1205.94 85.107C1207.03 80.7751 1208.4 75.9503 1210.08 70.6325C1211.75 65.3147 1213.53 60.8857 1215.4 57.3381C1217.38 53.7904 1219.79 50.1979 1222.65 46.5531C1225.51 42.8112 1228.66 39.9059 1232.12 37.837C1235.66 35.6711 1239.81 33.901 1244.54 32.5192C1249.37 31.1375 1254.64 30.4504 1260.36 30.4504H1272.79V227.32C1272.79 232.145 1271.25 236.081 1268.2 239.136C1265.24 242.191 1261.3 243.714 1256.37 243.714H1252.52V246.665H1324.54V243.714H1320.55C1315.52 243.714 1311.52 242.236 1308.57 239.285C1305.71 236.231 1304.28 232.242 1304.28 227.32V30.4653H1316.7C1322.42 30.4653 1327.65 31.1525 1332.38 32.5342C1337.21 33.9159 1341.35 35.686 1344.8 37.852C1348.35 39.9208 1351.55 42.8262 1354.41 46.568C1357.27 50.2128 1359.64 53.8053 1361.51 57.353C1363.48 60.9007 1365.31 65.3297 1366.98 70.6474C1368.66 75.9652 1369.99 80.7901 1370.97 85.122C1372.06 89.3568 1373.24 94.6223 1374.52 100.926H1376V27.3658H1200.91V100.918V100.911Z" fill="#FFFEF7"/>
<path d="M780.596 80.3493C779.414 75.6439 775.757 73.1195 774.733 72.4249C770.904 69.8631 767.008 69.9004 765.108 69.9453C762.214 70.0125 757.944 70.7668 752.006 74.9344C745.605 79.4232 744.902 82.5078 736.13 93.0911C732.787 97.1167 729.242 100.896 722.146 108.454C717.674 113.212 714.047 117.066 708.827 122.137C706.823 124.087 705.23 125.55 702.687 127.866C700.421 129.935 697.527 132.564 694.125 135.626C689.481 139.928 685.397 143.222 682.242 145.612C680.686 146.792 678.345 148.517 674.988 148.928C673.529 149.107 671.129 149.398 669.357 147.822C667.158 145.873 667.614 142.542 667.689 142.064C668.018 139.905 669.267 138.434 669.835 137.792C674.711 132.287 688.157 121.346 688.793 120.838C690.169 119.71 692.606 117.716 695.658 115.236C706.95 106.042 707.855 105.265 709.515 103.667C714.578 98.8196 717.449 96.0263 719.768 91.2239C720.919 88.8338 721.637 86.6156 722.998 82.1493C724.531 77.1302 725.399 73.4406 725.877 71.4614C728.816 59.3769 730.282 53.3346 733.266 48.4874C737.648 41.3771 743.227 37.7174 744.633 36.8286C748.963 34.1025 752.904 33.0195 755.94 32.2054C762.02 30.5698 767.284 30.3606 770.874 30.4727V27.3283H731.314C728.547 35.4917 720.814 41.3771 711.698 41.3771C702.582 41.3771 694.85 35.4992 692.083 27.3283H649.681V30.4727C649.965 30.4951 650.414 30.5249 650.953 30.5623C656.337 30.9432 659.037 31.1075 660.749 31.3615C663.277 31.7424 666.223 32.198 669.962 33.4751C675.429 35.3348 678.891 37.6801 679.751 38.2776C679.841 38.3373 681.426 39.4502 682.997 40.8244C689.137 46.2019 693.609 54.4326 694.498 56.0906C695.523 58.0026 701.939 70.2216 704.138 85.9509C704.781 90.5442 704.826 93.6363 703.943 97.042C702.508 102.621 699.225 106.535 697.407 108.663C695.628 110.74 694.027 112.062 690.819 114.706C685.794 118.851 681.382 121.749 675.496 125.603C675.332 125.707 673.522 126.872 669.91 129.203C662.192 134.177 661.624 134.52 660.413 135.394C656.352 138.307 654.318 139.764 651.82 142.355C647.535 146.799 645.419 150.9 644.753 152.244C643.975 153.827 643.205 155.418 642.629 157.711C642.061 159.959 641.021 164.097 642.682 168.683C643.108 169.848 644.132 172.581 646.802 174.68C647.49 175.218 648.948 176.346 651.139 176.779C652.598 177.07 653.794 176.943 654.624 176.846C656.232 176.659 657.488 176.226 658.595 175.771C662.207 174.292 664.944 172.32 665.558 171.872C670.538 168.235 673.941 164.65 674.442 164.104C677.717 160.616 677.874 159.795 683.461 152.58C683.461 152.58 687.589 147.135 693.534 140.436C698.387 134.969 698.282 135.842 710.562 123.81C717.232 117.275 722.706 111.673 728.958 107.17C730.761 105.87 733.288 104.182 734.492 103.376C739.039 100.343 741.342 98.7823 743.272 98.0951C745.351 97.3557 751.184 95.2719 753.771 97.9532C754.968 99.1931 754.998 100.956 755.013 101.792C755.072 105.243 752.949 108.103 748.043 113.025C743.04 118.052 739.211 121.189 739.211 121.189C730.566 128.269 720.239 136.081 719.356 136.746C714.63 140.309 712.379 141.959 709.619 145.193C706.194 149.204 704.325 152.924 703.607 154.462C701.049 159.907 700.376 164.605 699.741 170.498C698.282 183.986 699.083 184.621 698.021 193.972C696.906 203.779 695.007 212.106 691.717 219.896C690.542 222.682 689.219 225.334 687.185 228.157C685.704 230.211 682.593 234.431 677.111 237.665C674.113 239.435 671.271 240.398 669.663 240.928C668.751 241.227 666.941 241.802 664.174 242.37C661.041 243.012 656.157 243.759 649.711 243.781C649.711 244.782 649.711 245.783 649.711 246.784H770.792C770.814 245.783 770.829 244.782 770.852 243.781C767.898 243.707 764.428 243.505 760.838 243.064C758.812 242.811 757.226 242.542 755.686 242.213C753.652 241.772 752.298 241.362 751.961 241.257C751.961 241.257 750.017 240.652 748.357 239.935C742.486 237.396 738 232.227 738 232.227C735.778 229.665 734.545 227.358 733.4 225.222C732.009 222.622 731.217 220.546 730.349 218.253C729.684 216.491 728.674 213.66 727.35 208.693C726.476 205.429 726.012 203.293 724.868 198.065C722.684 188.057 721.914 184.554 720.725 178.661C719.648 173.291 719.289 170.535 719.042 168.742C718.339 163.649 717.98 161.109 718.01 158.152C718.04 154.925 718.085 150.108 720.411 144.648C722.265 140.286 724.741 137.456 726.857 135.096C729.213 132.467 731.321 130.794 735.449 127.56C751.587 114.9 751.199 115.363 752.567 114.377C760.681 108.551 766.252 104.713 766.252 104.713C766.252 104.713 774.867 98.7599 778.345 92.5533C779.085 91.2313 779.564 89.8496 779.564 89.8496C779.564 89.8496 779.728 89.3567 779.878 88.8413C780.655 86.1899 781.381 83.5833 780.581 80.4016L780.596 80.3493Z" fill="#FFFEF7"/>
<path d="M732.413 20.6811C732.413 9.25384 723.14 0 711.706 0C700.272 0 690.999 9.26131 690.999 20.6811C690.999 23.0039 691.387 25.2371 692.098 27.3209H731.329C732.039 25.2371 732.428 23.0039 732.428 20.6811H732.413Z" fill="#FFFEF7"/>
</svg>
