<svg width="1376" height="250" viewBox="0 0 1376 250" fill="none" xmlns="http://www.w3.org/2000/svg">
<path fill-rule="evenodd" clip-rule="evenodd" d="M0 27.4056V30.5096H3.84383C8.86922 30.5096 12.8626 31.9906 15.824 34.945C18.7779 37.8995 20.2586 41.8488 20.2586 46.7779V227.666C20.2586 232.595 18.7779 236.589 15.824 239.648C12.8701 242.603 8.8767 244.084 3.84383 244.084H0V247.038H160.446V173.378H158.965C157.687 179.691 156.55 185.017 155.563 189.355C154.576 193.596 153.2 198.428 151.42 203.851C149.745 209.176 147.92 213.612 145.946 217.164C144.076 220.717 141.706 224.36 138.849 228.107C135.992 231.757 132.784 234.667 129.239 236.836C125.792 238.908 121.649 240.628 116.818 242.012C112.084 243.395 106.857 244.084 101.143 244.084H51.7496V46.7779C51.7496 41.946 53.2303 38.0491 56.1842 35.0946C59.2428 32.0355 63.2362 30.5096 68.1643 30.5096H72.0082V27.4056H0Z" fill="#40423D"/>
<path fill-rule="evenodd" clip-rule="evenodd" d="M171.686 27.4056V30.5096H175.679C180.704 30.5096 184.698 31.9906 187.659 34.945C190.621 37.8995 192.094 41.8488 192.094 46.7779V173.087C192.094 185.211 194.113 196.206 198.159 206.072C202.302 215.833 207.918 223.918 215.015 230.329C222.209 236.641 230.592 241.518 240.157 244.974C249.818 248.325 260.221 250 271.356 250C292.452 250 309.016 244.33 321.041 232.991C333.171 221.652 339.229 206.566 339.229 187.732V65.5593C339.229 53.4347 341.053 44.5564 344.703 38.9392C348.449 33.322 353.377 30.5096 359.487 30.5096V27.4056H315.567V30.5096C321.774 30.5096 326.755 33.322 330.501 38.9392C334.248 44.5564 336.118 53.4347 336.118 65.5593V184.92C336.118 201.681 330.987 215.19 320.735 225.444C310.482 235.602 296.879 240.68 279.918 240.68C262.958 240.68 249.205 235.602 238.96 225.444C228.707 215.287 223.577 201.779 223.577 184.92V46.7779C223.577 41.8488 225.058 37.907 228.012 34.945C230.966 31.9906 234.914 30.5096 239.842 30.5096H243.836V27.4056H171.671H171.686Z" fill="#40423D"/>
<path fill-rule="evenodd" clip-rule="evenodd" d="M380.045 27.4056V30.5096C386.155 30.5096 391.038 33.322 394.688 38.9392C398.434 44.5564 400.311 53.4347 400.311 65.5593V208.877C400.311 220.904 398.434 229.783 394.688 235.497C391.038 241.219 386.163 244.076 380.045 244.076V247.031H423.965V244.076C417.855 244.076 412.92 241.219 409.181 235.497C405.434 229.775 403.564 220.904 403.564 208.877V48.7001L485.638 196.461L575.991 33.7633V227.666C575.991 232.498 574.465 236.439 571.407 239.499C568.445 242.558 564.504 244.084 559.576 244.084H555.732V247.038H627.748V244.084H623.754C618.729 244.084 614.736 242.603 611.774 239.648C608.917 236.589 607.489 232.595 607.489 227.666V46.7779C607.489 41.8488 608.917 37.907 611.774 34.945C614.736 31.9906 618.722 30.5096 623.754 30.5096H627.748V27.4056H575.991L502.053 160.962L427.226 27.4056H380.045Z" fill="#40423D"/>
<path fill-rule="evenodd" clip-rule="evenodd" d="M794.692 247.045H838.612V244.091C832.502 244.091 827.574 241.234 823.828 235.512C820.081 229.79 818.204 220.919 818.204 208.892V48.9991L941.834 247.045H962.385V65.5591C962.385 53.4346 964.262 44.5562 968.008 38.939C971.755 33.3218 976.683 30.5094 982.793 30.5094V27.4054H938.873V30.5094C945.087 30.5094 950.061 33.3218 953.807 38.939C957.554 44.5562 959.431 53.4346 959.431 65.5591V215.534L841.573 27.3979H794.692V30.5019C800.802 30.5019 805.685 33.3143 809.335 38.9315C813.081 44.5487 814.951 53.4271 814.951 65.5516V208.869C814.951 220.896 813.081 229.775 809.335 235.489C805.685 241.211 800.802 244.068 794.692 244.068V247.045Z" fill="#40423D"/>
<path fill-rule="evenodd" clip-rule="evenodd" d="M1215.4 244.084C1210.57 244.084 1205.99 242.603 1201.65 239.648C1197.41 236.589 1194.21 232.595 1192.04 227.666L1109.08 27.4056H1105.83L1030.41 208.884C1025.38 220.912 1019.77 229.79 1013.55 235.504C1007.44 241.226 1001.32 244.084 995.215 244.084V247.046H1039.43V244.084C1035.49 244.084 1032.48 242.947 1030.41 240.68C1028.44 238.414 1027.6 234.614 1027.89 229.289C1028.29 223.866 1030.21 217.06 1033.66 208.877L1039.43 195.271H1144.87L1158.17 227.666C1160.34 232.498 1160.59 236.439 1158.91 239.499C1157.24 242.558 1153.89 244.084 1148.86 244.084H1144.87V247.046H1219.4V244.084H1215.4ZM1040.62 192.167L1092.22 68.3716L1143.69 192.167H1040.62Z" fill="#40423D"/>
<path fill-rule="evenodd" clip-rule="evenodd" d="M1200.91 101.058H1202.54C1203.82 94.7449 1204.96 89.4717 1205.94 85.2307C1207.03 80.8925 1208.4 76.0607 1210.08 70.7352C1211.75 65.4097 1213.53 60.9742 1215.4 57.4214C1217.38 53.8686 1219.79 50.2709 1222.65 46.6208C1225.51 42.8735 1228.66 39.9639 1232.12 37.892C1235.66 35.7229 1239.81 33.9502 1244.54 32.5665C1249.37 31.1828 1254.64 30.4946 1260.36 30.4946H1272.79V227.651C1272.79 232.483 1271.25 236.424 1268.2 239.484C1265.24 242.543 1261.3 244.069 1256.37 244.069H1252.52V247.023H1324.54V244.069H1320.55C1315.52 244.069 1311.52 242.588 1308.57 239.633C1305.71 236.574 1304.28 232.58 1304.28 227.651V30.5096H1316.7C1322.42 30.5096 1327.65 31.1977 1332.38 32.5815C1337.21 33.9652 1341.35 35.7379 1344.8 37.907C1348.35 39.9788 1351.55 42.8884 1354.41 46.6357C1357.27 50.2858 1359.64 53.8835 1361.51 57.4364C1363.48 60.9892 1365.31 65.4246 1366.98 70.7501C1368.66 76.0757 1369.99 80.9075 1370.97 85.2457C1372.06 89.4867 1373.24 94.7598 1374.52 101.073H1376V27.4056H1200.91V101.065V101.058Z" fill="#40423D"/>
<path d="M780.596 80.4661C779.414 75.7539 775.757 73.2258 774.733 72.5302C770.904 69.9647 767.008 70.002 765.108 70.0469C762.214 70.1142 757.944 70.8697 752.006 75.0433C745.605 79.5386 744.902 82.6277 736.13 93.2264C732.787 97.2579 729.242 101.043 722.146 108.612C717.674 113.377 714.047 117.236 708.827 122.315C706.823 124.267 705.23 125.733 702.687 128.052C700.421 130.123 697.527 132.756 694.125 135.823C689.481 140.131 685.397 143.43 682.242 145.823C680.686 147.005 678.345 148.733 674.988 149.144C673.529 149.324 671.129 149.615 669.357 148.037C667.158 146.085 667.614 142.749 667.689 142.27C668.018 140.109 669.267 138.635 669.835 137.992C674.711 132.48 688.157 121.522 688.793 121.013C690.169 119.884 692.606 117.887 695.658 115.404C706.95 106.196 707.855 105.418 709.515 103.818C714.578 98.9633 717.449 96.1659 719.768 91.3565C720.919 88.963 721.637 86.7415 722.998 82.2687C724.531 77.2423 725.399 73.5474 725.877 71.5653C728.816 59.4632 730.282 53.4122 733.266 48.5579C737.648 41.4373 743.227 37.7722 744.633 36.8821C748.963 34.1521 752.904 33.0675 755.94 32.2522C762.02 30.6142 767.284 30.4048 770.874 30.517V27.368H731.314C728.547 35.5433 720.814 41.4373 711.698 41.4373C702.582 41.4373 694.85 35.5508 692.083 27.368H649.681V30.517C649.965 30.5394 650.414 30.5693 650.953 30.6067C656.337 30.9882 659.037 31.1527 660.749 31.407C663.277 31.7885 666.223 32.2448 669.962 33.5238C675.429 35.3862 678.891 37.7348 679.751 38.3332C679.841 38.393 681.426 39.5075 682.997 40.8838C689.137 46.2691 693.609 54.5117 694.498 56.1722C695.523 58.087 701.939 70.3237 704.138 86.0758C704.781 90.6758 704.826 93.7724 703.943 97.1831C702.508 102.77 699.225 106.69 697.407 108.821C695.628 110.901 694.027 112.225 690.819 114.872C685.794 119.024 681.382 121.926 675.496 125.785C675.332 125.89 673.522 127.057 669.91 129.39C662.192 134.372 661.624 134.716 660.413 135.591C656.352 138.508 654.318 139.967 651.82 142.562C647.535 147.013 645.419 151.119 644.753 152.465C643.975 154.051 643.205 155.644 642.629 157.94C642.061 160.192 641.021 164.335 642.682 168.928C643.108 170.095 644.132 172.832 646.802 174.934C647.49 175.473 648.948 176.602 651.139 177.036C652.598 177.328 653.794 177.2 654.624 177.103C656.232 176.916 657.488 176.482 658.595 176.026C662.207 174.545 664.944 172.571 665.558 172.122C670.538 168.479 673.941 164.889 674.442 164.343C677.717 160.85 677.874 160.027 683.461 152.802C683.461 152.802 687.589 147.349 693.534 140.64C698.387 135.165 698.282 136.04 710.562 123.99C717.232 117.445 722.706 111.836 728.958 107.326C730.761 106.024 733.288 104.334 734.492 103.526C739.039 100.489 741.342 98.9259 743.272 98.2377C745.351 97.4972 751.184 95.4104 753.771 98.0956C754.968 99.3372 754.998 101.102 755.013 101.94C755.072 105.396 752.949 108.26 748.043 113.19C743.04 118.223 739.211 121.365 739.211 121.365C730.566 128.456 720.239 136.279 719.356 136.945C714.63 140.513 712.379 142.166 709.619 145.404C706.194 149.421 704.325 153.146 703.607 154.687C701.049 160.139 700.376 164.844 699.741 170.745C698.282 184.254 699.083 184.89 698.021 194.254C696.906 204.075 695.007 212.415 691.717 220.216C690.542 223.006 689.219 225.661 687.185 228.488C685.704 230.545 682.593 234.771 677.111 238.01C674.113 239.783 671.271 240.748 669.663 241.279C668.751 241.578 666.941 242.154 664.174 242.722C661.041 243.365 656.157 244.113 649.711 244.136C649.711 245.138 649.711 246.14 649.711 247.143H770.792C770.814 246.14 770.829 245.138 770.852 244.136C767.898 244.061 764.428 243.859 760.838 243.418C758.812 243.163 757.226 242.894 755.686 242.565C753.652 242.124 752.298 241.712 751.961 241.608C751.961 241.608 750.017 241.002 748.357 240.284C742.486 237.741 738 232.565 738 232.565C735.778 229.999 734.545 227.688 733.4 225.549C732.009 222.946 731.217 220.867 730.349 218.57C729.684 216.805 728.674 213.97 727.35 208.996C726.476 205.728 726.012 203.589 724.868 198.353C722.684 188.33 721.914 184.822 720.725 178.921C719.648 173.543 719.289 170.783 719.042 168.988C718.339 163.887 717.98 161.344 718.01 158.382C718.04 155.15 718.085 150.326 720.411 144.858C722.265 140.49 724.741 137.656 726.857 135.292C729.213 132.659 731.321 130.984 735.449 127.745C751.587 115.067 751.199 115.531 752.567 114.543C760.681 108.709 766.252 104.865 766.252 104.865C766.252 104.865 774.867 98.9034 778.345 92.6878C779.085 91.3639 779.564 89.9802 779.564 89.9802C779.564 89.9802 779.728 89.4865 779.878 88.9704C780.655 86.3152 781.381 83.7048 780.581 80.5184L780.596 80.4661Z" fill="#40423D"/>
<path d="M732.413 20.7112C732.413 9.26729 723.14 0 711.706 0C700.272 0 690.999 9.27477 690.999 20.7112C690.999 23.0373 691.387 25.2737 692.098 27.3606H731.329C732.039 25.2737 732.428 23.0373 732.428 20.7112H732.413Z" fill="#40423D"/>
</svg>
