<svg width="23" height="17" viewBox="0 0 23 17" fill="none" xmlns="http://www.w3.org/2000/svg">
<path d="M23.0003 13.8342V2.24994C23.0029 1.95713 22.9486 1.66666 22.8404 1.39513C22.7322 1.1236 22.5723 0.876314 22.3699 0.667397C22.1674 0.458479 21.9263 0.29202 21.6603 0.177524C21.3944 0.0630271 21.1087 0.00273541 20.8198 9.09863e-05C20.5308 -0.00255344 20.2442 0.0525012 19.9762 0.162111C19.7083 0.271722 19.4643 0.433741 19.2581 0.638919C19.0519 0.844096 18.8877 1.08841 18.7747 1.35792C18.6617 1.62743 18.6022 1.91685 18.5996 2.20966V13.8342C18.5832 14.4142 18.3442 14.965 17.9336 15.3694C17.5229 15.7738 16.9728 16 16.4001 16C15.8275 16 15.2774 15.7738 14.8667 15.3694C14.456 14.965 14.2171 14.4142 14.2007 13.8342V2.24994C14.2059 1.65858 13.9792 1.08932 13.5703 0.667397C13.1613 0.245469 12.6038 0.00543177 12.0202 9.11172e-05C11.4366 -0.00524953 10.8749 0.224544 10.4585 0.638919C10.0421 1.05329 9.80524 1.61831 9.79997 2.20966V13.8342C9.78356 14.4142 9.54464 14.965 9.13395 15.3694C8.72327 15.7738 8.17317 16 7.60052 16C7.02787 16 6.47777 15.7738 6.06709 15.3694C5.6564 14.965 5.41748 14.4142 5.40107 13.8342V2.24994C5.40634 1.65858 5.17957 1.08932 4.77065 0.667397C4.36173 0.245469 3.80416 0.0054317 3.22059 9.10517e-05C2.63702 -0.0052496 2.07526 0.224544 1.65889 0.638919C1.24251 1.05329 1.00564 1.61831 1.00037 2.20966V13.9129" stroke="#BFBDAE" stroke-linejoin="round"/>
</svg>
