<svg width="32" height="33" viewBox="0 0 32 33" fill="none" xmlns="http://www.w3.org/2000/svg">
<path d="M2.66675 16.637C2.66675 22.3293 6.23453 27.1893 11.2556 29.1015C11.1334 28.0604 11.0034 26.3437 11.2834 25.1393C11.5245 24.1037 12.8401 18.5415 12.8401 18.5415C12.8401 18.5415 12.4434 17.747 12.4434 16.5704C12.4434 14.7259 13.5123 13.3482 14.8445 13.3482C15.9779 13.3482 16.5245 14.1982 16.5245 15.217C16.5245 16.3559 15.799 18.0582 15.4245 19.637C15.1123 20.9582 16.0879 22.0359 17.3901 22.0359C19.749 22.0359 21.5634 19.5482 21.5634 15.957C21.5634 12.7782 19.279 10.557 16.0179 10.557C12.2423 10.557 10.0256 13.3893 10.0256 16.317C10.0256 17.4582 10.4645 18.6804 11.0134 19.3459C11.0602 19.3962 11.0933 19.4577 11.1094 19.5244C11.1256 19.5912 11.1243 19.6609 11.1056 19.727C11.0045 20.147 10.7801 21.0482 10.7367 21.2326C10.6779 21.4748 10.5445 21.527 10.2923 21.4093C8.63453 20.6382 7.59897 18.2148 7.59897 16.2682C7.59897 12.0804 10.6401 8.23593 16.3679 8.23593C20.9723 8.23593 24.5512 11.517 24.5512 15.9015C24.5512 20.4759 21.6679 24.1582 17.6634 24.1582C16.3179 24.1582 15.0545 23.4582 14.6212 22.6326C14.6212 22.6326 13.9556 25.1682 13.7945 25.7882C13.4812 26.9926 12.6123 28.517 12.0734 29.3826C13.3156 29.7648 14.6334 29.9704 16.0001 29.9704C23.3634 29.9704 29.3334 24.0004 29.3334 16.637C29.3334 9.27371 23.3634 3.30371 16.0001 3.30371C8.63675 3.30371 2.66675 9.27371 2.66675 16.637Z" fill="#FFFEF7"/>
</svg>
