<svg width="32" height="33" viewBox="0 0 32 33" fill="none" xmlns="http://www.w3.org/2000/svg">
<path d="M2.66675 16.512C2.66675 22.2043 6.23453 27.0643 11.2556 28.9765C11.1334 27.9354 11.0034 26.2187 11.2834 25.0143C11.5245 23.9787 12.8401 18.4165 12.8401 18.4165C12.8401 18.4165 12.4434 17.622 12.4434 16.4454C12.4434 14.6009 13.5123 13.2232 14.8445 13.2232C15.9779 13.2232 16.5245 14.0732 16.5245 15.092C16.5245 16.2309 15.799 17.9332 15.4245 19.512C15.1123 20.8332 16.0879 21.9109 17.3901 21.9109C19.749 21.9109 21.5634 19.4232 21.5634 15.832C21.5634 12.6532 19.279 10.432 16.0179 10.432C12.2423 10.432 10.0256 13.2643 10.0256 16.192C10.0256 17.3332 10.4645 18.5554 11.0134 19.2209C11.0602 19.2712 11.0933 19.3327 11.1094 19.3994C11.1256 19.4662 11.1243 19.5359 11.1056 19.602C11.0045 20.022 10.7801 20.9232 10.7367 21.1076C10.6779 21.3498 10.5445 21.402 10.2923 21.2843C8.63453 20.5132 7.59897 18.0898 7.59897 16.1432C7.59897 11.9554 10.6401 8.11093 16.3679 8.11093C20.9723 8.11093 24.5512 11.392 24.5512 15.7765C24.5512 20.3509 21.6679 24.0332 17.6634 24.0332C16.3179 24.0332 15.0545 23.3332 14.6212 22.5076C14.6212 22.5076 13.9556 25.0432 13.7945 25.6632C13.4812 26.8676 12.6123 28.392 12.0734 29.2576C13.3156 29.6398 14.6334 29.8454 16.0001 29.8454C23.3634 29.8454 29.3334 23.8754 29.3334 16.512C29.3334 9.14871 23.3634 3.17871 16.0001 3.17871C8.63675 3.17871 2.66675 9.14871 2.66675 16.512Z" fill="#40423D"/>
</svg>
