<svg width="24" height="25" viewBox="0 0 24 25" fill="none" xmlns="http://www.w3.org/2000/svg">
<path d="M3 3.5H3.26835C3.74213 3.5 3.97943 3.5 4.17267 3.58548C4.34304 3.66084 4.48871 3.78218 4.59375 3.93604C4.71269 4.11026 4.75564 4.3429 4.84137 4.80727L7.00004 16.5L17.4218 16.5C17.875 16.5 18.1023 16.5 18.29 16.4199C18.4559 16.3492 18.5989 16.2346 18.7051 16.0889C18.8252 15.9242 18.8761 15.7037 18.9777 15.2631L18.9785 15.26L20.5477 8.45996L20.5481 8.45854C20.7023 7.79016 20.7796 7.45515 20.6947 7.19238C20.6202 6.96182 20.4635 6.76634 20.2556 6.64192C20.0184 6.5 19.6758 6.5 18.9887 6.5H5.5M18 21.5C17.4477 21.5 17 21.0523 17 20.5C17 19.9477 17.4477 19.5 18 19.5C18.5523 19.5 19 19.9477 19 20.5C19 21.0523 18.5523 21.5 18 21.5ZM8 21.5C7.44772 21.5 7 21.0523 7 20.5C7 19.9477 7.44772 19.5 8 19.5C8.55228 19.5 9 19.9477 9 20.5C9 21.0523 8.55228 21.5 8 21.5Z" stroke="#40423D" stroke-width="2" stroke-linecap="round" stroke-linejoin="round"/>
</svg>
