<svg width="18" height="17" viewBox="0 0 18 17" fill="none" xmlns="http://www.w3.org/2000/svg">
<path d="M15.6867 7.04267C15.4267 7.04346 15.1723 6.96705 14.9557 6.82313C14.7392 6.67921 14.5702 6.47425 14.4702 6.23421C14.3703 5.99418 14.3438 5.72987 14.3942 5.47479C14.4446 5.21971 14.5696 4.98532 14.7533 4.80133C14.8754 4.67958 14.9723 4.53494 15.0383 4.3757C15.1044 4.21646 15.1384 4.04574 15.1384 3.87333C15.1384 3.70092 15.1044 3.53021 15.0383 3.37097C14.9723 3.21172 14.8754 3.06708 14.7533 2.94533L14.5493 2.74133C14.3031 2.49544 13.9693 2.35733 13.6213 2.35733C13.2733 2.35733 12.9396 2.49544 12.6933 2.74133C12.5093 2.92506 12.275 3.05004 12.0199 3.10044C11.7648 3.15083 11.5005 3.12438 11.2605 3.02442C11.0204 2.92447 10.8155 2.75551 10.6715 2.53896C10.5276 2.32241 10.4512 2.06801 10.452 1.808C10.4506 1.46153 10.3123 1.12965 10.0673 0.884656C9.82235 0.639662 9.49047 0.501404 9.144 0.5H8.856C8.50768 0.5 8.17363 0.638369 7.92733 0.884666C7.68104 1.13096 7.54267 1.46502 7.54267 1.81333C7.54346 2.07335 7.46705 2.32774 7.32313 2.54429C7.17921 2.76084 6.97425 2.9298 6.73421 3.02975C6.49418 3.12971 6.22987 3.15616 5.97479 3.10577C5.71971 3.05537 5.48532 2.93039 5.30133 2.74667C5.17958 2.62459 5.03494 2.52774 4.8757 2.46166C4.71646 2.39558 4.54574 2.36156 4.37333 2.36156C4.20092 2.36156 4.03021 2.39558 3.87097 2.46166C3.71172 2.52774 3.56708 2.62459 3.44533 2.74667L3.24133 2.95067C3.11926 3.07242 3.02241 3.21706 2.95633 3.3763C2.89024 3.53554 2.85623 3.70626 2.85623 3.87867C2.85623 4.05108 2.89024 4.22179 2.95633 4.38103C3.02241 4.54028 3.11926 4.68492 3.24133 4.80667C3.42506 4.99066 3.55004 5.22504 3.60044 5.48012C3.65083 5.73521 3.62438 5.99951 3.52442 6.23954C3.42447 6.47958 3.25551 6.68454 3.03896 6.82847C2.82241 6.97239 2.56801 7.04879 2.308 7.048C1.96153 7.0494 1.62965 7.18766 1.38466 7.43266C1.13966 7.67765 1.0014 8.00953 1 8.356V8.644C1 8.99232 1.13837 9.32637 1.38467 9.57267C1.63096 9.81896 1.96502 9.95733 2.31333 9.95733C2.57335 9.95654 2.82774 10.0329 3.04429 10.1769C3.26084 10.3208 3.4298 10.5258 3.52975 10.7658C3.62971 11.0058 3.65616 11.2701 3.60577 11.5252C3.55537 11.7803 3.43039 12.0147 3.24667 12.1987C3.12459 12.3204 3.02774 12.4651 2.96166 12.6243C2.89558 12.7835 2.86156 12.9543 2.86156 13.1267C2.86156 13.2991 2.89558 13.4698 2.96166 13.629C3.02774 13.7883 3.12459 13.9329 3.24667 14.0547L3.45067 14.2587C3.57242 14.3807 3.71706 14.4776 3.8763 14.5437C4.03554 14.6098 4.20626 14.6438 4.37867 14.6438C4.55108 14.6438 4.72179 14.6098 4.88103 14.5437C5.04028 14.4776 5.18492 14.3807 5.30667 14.2587C5.49066 14.0749 5.72504 13.95 5.98012 13.8996C6.23521 13.8492 6.49951 13.8756 6.73954 13.9756C6.97958 14.0755 7.18454 14.2445 7.32847 14.461C7.47239 14.6776 7.54879 14.932 7.548 15.192C7.5494 15.5385 7.68766 15.8704 7.93266 16.1153C8.17765 16.3603 8.50953 16.4986 8.856 16.5H9.144C9.49209 16.5 9.82594 16.3618 10.0722 16.1158C10.3185 15.8698 10.457 15.5361 10.4573 15.188C10.4565 14.928 10.5329 14.6736 10.6769 14.457C10.8208 14.2405 11.0258 14.0715 11.2658 13.9716C11.5058 13.8716 11.7701 13.8452 12.0252 13.8956C12.2803 13.946 12.5147 14.0709 12.6987 14.2547C12.8204 14.3767 12.9651 14.4736 13.1243 14.5397C13.2835 14.6058 13.4543 14.6398 13.6267 14.6398C13.7991 14.6398 13.9698 14.6058 14.129 14.5397C14.2883 14.4736 14.4329 14.3767 14.5547 14.2547L14.7587 14.0507C14.8807 13.9289 14.9776 13.7843 15.0437 13.625C15.1098 13.4658 15.1438 13.2951 15.1438 13.1227C15.1438 12.9503 15.1098 12.7795 15.0437 12.6203C14.9776 12.4611 14.8807 12.3164 14.7587 12.1947C14.5749 12.0107 14.45 11.7763 14.3996 11.5212C14.3492 11.2661 14.3756 11.0018 14.4756 10.7618C14.5755 10.5218 14.7445 10.3168 14.961 10.1729C15.1776 10.0289 15.432 9.95254 15.692 9.95333C16.0387 9.95193 16.3708 9.81349 16.6158 9.56821C16.8608 9.32292 16.9989 8.9907 17 8.644V8.356C17 8.00768 16.8616 7.67363 16.6153 7.42733C16.369 7.18104 16.035 7.04267 15.6867 7.04267Z" stroke="#BFBDAE" stroke-miterlimit="10"/>
</svg>
