<svg width="32" height="33" viewBox="0 0 32 33" fill="none" xmlns="http://www.w3.org/2000/svg">
<path fill-rule="evenodd" clip-rule="evenodd" d="M29.3334 16.512C29.3334 23.8758 23.3639 29.8454 16.0001 29.8454C8.63628 29.8454 2.66675 23.8758 2.66675 16.512C2.66675 9.14825 8.63628 3.17871 16.0001 3.17871C23.3639 3.17871 29.3334 9.14825 29.3334 16.512ZM16.4779 13.022C15.181 13.5614 12.5891 14.6778 8.70217 16.3713C8.07099 16.6223 7.74035 16.8678 7.71025 17.1079C7.65939 17.5137 8.16753 17.6735 8.85949 17.8911C8.95361 17.9207 9.05113 17.9513 9.15111 17.9838C9.83189 18.2051 10.7477 18.464 11.2237 18.4743C11.6556 18.4836 12.1375 18.3056 12.6697 17.9402C16.3014 15.4887 18.176 14.2496 18.2937 14.2229C18.3768 14.2041 18.4918 14.1804 18.5698 14.2497C18.6478 14.3189 18.6401 14.4502 18.6318 14.4854C18.5815 14.7 16.5869 16.5544 15.5546 17.514C15.2328 17.8132 15.0046 18.0254 14.9579 18.0739C14.8534 18.1824 14.7469 18.2851 14.6445 18.3838C14.012 18.9935 13.5377 19.4507 14.6707 20.1974C15.2152 20.5562 15.6509 20.8529 16.0856 21.1489C16.5603 21.4721 17.0337 21.7946 17.6463 22.1961C17.8024 22.2984 17.9514 22.4047 18.0966 22.5082C18.649 22.902 19.1453 23.2559 19.7585 23.1994C20.1148 23.1666 20.4828 22.8316 20.6697 21.8325C21.1114 19.4711 21.9797 14.3548 22.1803 12.2465C22.1979 12.0617 22.1758 11.8253 22.158 11.7216C22.1403 11.6178 22.1031 11.4699 21.9683 11.3605C21.8085 11.2309 21.5619 11.2035 21.4516 11.2054C20.9501 11.2143 20.1807 11.4818 16.4779 13.022Z" fill="#40423D"/>
</svg>
