<svg width="32" height="33" viewBox="0 0 32 33" fill="none" xmlns="http://www.w3.org/2000/svg">
<path fill-rule="evenodd" clip-rule="evenodd" d="M29.3334 16.637C29.3334 24.0008 23.3639 29.9704 16.0001 29.9704C8.63628 29.9704 2.66675 24.0008 2.66675 16.637C2.66675 9.27325 8.63628 3.30371 16.0001 3.30371C23.3639 3.30371 29.3334 9.27325 29.3334 16.637ZM16.4779 13.147C15.181 13.6864 12.5891 14.8028 8.70217 16.4963C8.07099 16.7473 7.74035 16.9928 7.71025 17.2329C7.65939 17.6387 8.16753 17.7985 8.85949 18.0161C8.95361 18.0457 9.05113 18.0763 9.15111 18.1088C9.83189 18.3301 10.7477 18.589 11.2237 18.5993C11.6556 18.6086 12.1375 18.4306 12.6697 18.0652C16.3014 15.6137 18.176 14.3746 18.2937 14.3479C18.3768 14.3291 18.4918 14.3054 18.5698 14.3747C18.6478 14.4439 18.6401 14.5752 18.6318 14.6104C18.5815 14.825 16.5869 16.6794 15.5546 17.639C15.2328 17.9382 15.0046 18.1504 14.9579 18.1989C14.8534 18.3074 14.7469 18.4101 14.6445 18.5088C14.012 19.1185 13.5377 19.5757 14.6707 20.3224C15.2152 20.6812 15.6509 20.9779 16.0856 21.2739C16.5603 21.5971 17.0337 21.9196 17.6463 22.3211C17.8024 22.4234 17.9514 22.5297 18.0966 22.6332C18.649 23.027 19.1453 23.3809 19.7585 23.3244C20.1148 23.2916 20.4828 22.9566 20.6697 21.9575C21.1114 19.5961 21.9797 14.4798 22.1803 12.3715C22.1979 12.1867 22.1758 11.9503 22.158 11.8466C22.1403 11.7428 22.1031 11.5949 21.9683 11.4855C21.8085 11.3559 21.5619 11.3285 21.4516 11.3304C20.9501 11.3393 20.1807 11.6068 16.4779 13.147Z" fill="#FFFEF7"/>
</svg>
