<svg width="32" height="33" viewBox="0 0 32 33" fill="none" xmlns="http://www.w3.org/2000/svg">
<path d="M22.4292 7.48292C21.4517 6.3623 20.8641 4.90111 20.8641 3.30371H19.6392C19.9547 5.04971 20.994 6.54806 22.4292 7.48292Z" fill="#FFFEF7"/>
<path d="M11.0958 16.5101C8.97396 16.5101 7.248 18.2375 7.248 20.3612C7.248 21.841 8.08933 23.1288 9.3142 23.7727C8.85643 23.1412 8.58423 22.3673 8.58423 21.5252C8.58423 19.4015 10.3102 17.6741 12.4321 17.6741C12.828 17.6741 13.2115 17.7422 13.5704 17.8536V13.1729C13.1991 13.1234 12.8218 13.0924 12.4321 13.0924C12.364 13.0924 12.3022 13.0986 12.2341 13.0986V16.6896C11.8691 16.5782 11.4918 16.5101 11.0958 16.5101Z" fill="#FFFEF7"/>
<path d="M25.8995 9.53848V13.0986C23.5239 13.0986 21.3217 12.3371 19.5276 11.0492V20.3674C19.5276 25.0172 15.7479 28.8064 11.0957 28.8064C9.30173 28.8064 7.63145 28.2367 6.26429 27.2771C7.80466 28.9302 10.0008 29.9704 12.432 29.9704C17.0778 29.9704 20.8639 26.1874 20.8639 21.5314V12.2132C22.6578 13.5011 24.8601 14.2626 27.2357 14.2626V9.68095C26.7717 9.68095 26.3263 9.63136 25.8995 9.53848Z" fill="#FFFEF7"/>
<path d="M19.5276 20.3674V11.0492C21.3217 12.3371 23.5239 13.0986 25.8995 13.0986V9.53848C24.5261 9.24756 23.32 8.50455 22.4292 7.48292C20.9939 6.54806 19.9607 5.04971 19.6328 3.30371H16.2798L16.2736 21.6737C16.1994 23.7293 14.5043 25.3825 12.432 25.3825C11.1452 25.3825 10.0132 24.7447 9.30793 23.7789C8.08304 23.1288 7.24172 21.8472 7.24172 20.3674C7.24172 18.2437 8.96768 16.5163 11.0896 16.5163C11.4855 16.5163 11.869 16.5844 12.2278 16.6958V13.1048C7.67476 13.2038 4.00012 16.9435 4.00012 21.5314C4.00012 23.7479 4.86001 25.7664 6.26429 27.2771C7.63145 28.2367 9.30173 28.8064 11.0957 28.8064C15.7416 28.8064 19.5276 25.0172 19.5276 20.3674Z" fill="#FFFEF7"/>
</svg>
