<svg width="32" height="33" viewBox="0 0 32 33" fill="none" xmlns="http://www.w3.org/2000/svg">
<path d="M22.4291 7.35792C21.4516 6.2373 20.8639 4.77611 20.8639 3.17871H19.6391C19.9545 4.92471 20.9939 6.42306 22.4291 7.35792Z" fill="#40423D"/>
<path d="M11.0957 16.3851C8.97384 16.3851 7.24788 18.1125 7.24788 20.2362C7.24788 21.716 8.08921 23.0038 9.31408 23.6477C8.85631 23.0162 8.58411 22.2423 8.58411 21.4002C8.58411 19.2765 10.3101 17.5491 12.432 17.5491C12.8279 17.5491 13.2114 17.6172 13.5702 17.7286V13.0479C13.199 12.9984 12.8217 12.9674 12.432 12.9674C12.3639 12.9674 12.302 12.9736 12.234 12.9736V16.5646C11.869 16.4532 11.4916 16.3851 11.0957 16.3851Z" fill="#40423D"/>
<path d="M25.8994 9.41348V12.9736C23.5238 12.9736 21.3215 12.2121 19.5275 10.9242V20.2424C19.5275 24.8922 15.7477 28.6814 11.0956 28.6814C9.30161 28.6814 7.63133 28.1117 6.26416 27.1521C7.80454 28.8052 10.0007 29.8454 12.4319 29.8454C17.0777 29.8454 20.8637 26.0624 20.8637 21.4064V12.0882C22.6577 13.3761 24.86 14.1376 27.2356 14.1376V9.55595C26.7716 9.55595 26.3262 9.50636 25.8994 9.41348Z" fill="#40423D"/>
<path d="M19.5275 20.2424V10.9242C21.3215 12.2121 23.5238 12.9736 25.8994 12.9736V9.41348C24.526 9.12256 23.3199 8.37955 22.4291 7.35792C20.9938 6.42306 19.9606 4.92471 19.6326 3.17871H16.2797L16.2735 21.5487C16.1993 23.6043 14.5042 25.2575 12.4319 25.2575C11.1451 25.2575 10.013 24.6197 9.30781 23.6539C8.08292 23.0038 7.2416 21.7222 7.2416 20.2424C7.2416 18.1187 8.96756 16.3913 11.0894 16.3913C11.4854 16.3913 11.8689 16.4594 12.2277 16.5708V12.9798C7.67464 13.0788 4 16.8185 4 21.4064C4 23.6229 4.85989 25.6414 6.26416 27.1521C7.63133 28.1117 9.30161 28.6814 11.0956 28.6814C15.7415 28.6814 19.5275 24.8922 19.5275 20.2424Z" fill="#40423D"/>
</svg>
