<svg width="24" height="25" viewBox="0 0 24 25" fill="none" xmlns="http://www.w3.org/2000/svg">
<path d="M17 20.875C17 19.2181 14.7614 17.875 12 17.875C9.23858 17.875 7 19.2181 7 20.875M21 17.8754C21 16.6452 19.7659 15.5879 18 15.125M3 17.8754C3 16.6452 4.2341 15.5879 6 15.125M18 11.1111C18.6137 10.5618 19 9.7635 19 8.875C19 7.21815 17.6569 5.875 16 5.875C15.2316 5.875 14.5308 6.16385 14 6.63889M6 11.1111C5.38625 10.5618 5 9.7635 5 8.875C5 7.21815 6.34315 5.875 8 5.875C8.76835 5.875 9.46924 6.16385 10 6.63889M12 14.875C10.3431 14.875 9 13.5319 9 11.875C9 10.2181 10.3431 8.875 12 8.875C13.6569 8.875 15 10.2181 15 11.875C15 13.5319 13.6569 14.875 12 14.875Z" stroke="white" stroke-width="2" stroke-linecap="round" stroke-linejoin="round"/>
</svg>
