<svg width="32" height="33" viewBox="0 0 32 33" fill="none" xmlns="http://www.w3.org/2000/svg">
<path fill-rule="evenodd" clip-rule="evenodd" d="M4.53341 5.04538C2.66675 6.92982 2.66675 9.94316 2.66675 15.9787V17.0454C2.66675 23.072 2.66675 26.0854 4.53341 27.9787C6.41786 29.8454 9.43119 29.8454 15.4667 29.8454H16.5334C22.5601 29.8454 25.5734 29.8454 27.4667 27.9787C29.3334 26.0943 29.3334 23.0809 29.3334 17.0454V15.9787C29.3334 9.95204 29.3334 6.93871 27.4667 5.04538C25.5823 3.17871 22.569 3.17871 16.5334 3.17871H15.4667C9.44008 3.17871 6.42675 3.17871 4.53341 5.04538ZM7.16452 11.2943C7.30675 18.2276 10.7734 22.3876 16.8534 22.3876H17.209V18.4232C19.4401 18.6454 21.129 20.2809 21.8045 22.3876H24.9601C24.6364 21.1905 24.0627 20.0756 23.2767 19.1165C22.4907 18.1573 21.5102 17.3757 20.4001 16.8232C21.3949 16.2174 22.2541 15.4129 22.924 14.4601C23.5938 13.5072 24.06 12.4265 24.2934 11.2854H21.4312C20.809 13.4898 18.9601 15.4898 17.209 15.6765V11.2943H14.3379V18.9743C12.5601 18.5298 10.3201 16.3787 10.2223 11.2943H7.16452Z" fill="#40423D"/>
</svg>
