<svg width="32" height="33" viewBox="0 0 32 33" fill="none" xmlns="http://www.w3.org/2000/svg">
<path fill-rule="evenodd" clip-rule="evenodd" d="M4.53341 5.17038C2.66675 7.05482 2.66675 10.0682 2.66675 16.1037V17.1704C2.66675 23.197 2.66675 26.2104 4.53341 28.1037C6.41786 29.9704 9.43119 29.9704 15.4667 29.9704H16.5334C22.5601 29.9704 25.5734 29.9704 27.4667 28.1037C29.3334 26.2193 29.3334 23.2059 29.3334 17.1704V16.1037C29.3334 10.077 29.3334 7.06371 27.4667 5.17038C25.5823 3.30371 22.569 3.30371 16.5334 3.30371H15.4667C9.44008 3.30371 6.42675 3.30371 4.53341 5.17038ZM7.16452 11.4193C7.30675 18.3526 10.7734 22.5126 16.8534 22.5126H17.209V18.5482C19.4401 18.7704 21.129 20.4059 21.8045 22.5126H24.9601C24.6364 21.3155 24.0627 20.2006 23.2767 19.2415C22.4907 18.2823 21.5102 17.5007 20.4001 16.9482C21.3949 16.3424 22.2541 15.5379 22.924 14.5851C23.5938 13.6322 24.06 12.5515 24.2934 11.4104H21.4312C20.809 13.6148 18.9601 15.6148 17.209 15.8015V11.4193H14.3379V19.0993C12.5601 18.6548 10.3201 16.5037 10.2223 11.4193H7.16452Z" fill="#FFFEF7"/>
</svg>
