<svg width="32" height="33" viewBox="0 0 32 33" fill="none" xmlns="http://www.w3.org/2000/svg">
<path d="M2.66675 29.9704L4.54878 23.1292C3.39238 21.1223 2.7851 18.8461 2.78807 16.5299C2.77468 9.23104 8.702 3.30371 15.9867 3.30371C19.5223 3.30371 22.842 4.67446 25.3417 7.17491C26.5738 8.40059 27.5503 9.85859 28.2149 11.4644C28.8794 13.0703 29.2186 14.792 29.2129 16.5299C29.2129 23.8146 23.2856 29.7419 16.0001 29.7419C13.7825 29.7419 11.6184 29.1905 9.6828 28.1293L2.66675 29.9704ZM9.9924 25.7502L10.3957 25.992C12.0887 26.9938 14.0195 27.523 15.9867 27.5243C22.0353 27.5243 26.9685 22.5919 26.9685 16.5425C26.9685 13.6127 25.8262 10.8444 23.7559 8.77491C22.7378 7.75108 21.5272 6.93886 20.1938 6.38506C18.8604 5.83125 17.4305 5.54681 15.9867 5.54812C9.92465 5.54891 4.99309 10.4813 4.99309 16.5307C4.99309 18.6002 5.57133 20.6303 6.67344 22.3777L6.92869 22.7944L5.81318 26.8531L9.99319 25.751L9.9924 25.7502Z" fill="#FFFEF7"/>
<path fill-rule="evenodd" clip-rule="evenodd" d="M12.6937 10.9925C12.4519 10.4411 12.1832 10.4277 11.9548 10.4277C11.7531 10.4143 11.5373 10.4143 11.3088 10.4143C11.0945 10.4143 10.7313 10.4947 10.4225 10.831C10.1129 11.1666 9.26685 11.9599 9.26685 13.5859C9.26685 15.2127 10.4493 16.7851 10.6108 17.0002C10.7715 17.2153 12.8954 20.6556 16.2561 21.9869C19.0512 23.089 19.616 22.874 20.2211 22.8062C20.8253 22.7393 22.17 22.0137 22.4521 21.2338C22.7207 20.4681 22.7207 19.7961 22.6404 19.6614C22.56 19.5274 22.3308 19.4463 22.0085 19.2714C21.6722 19.1107 20.0596 18.304 19.7507 18.1961C19.4411 18.0889 19.2261 18.0354 19.011 18.3576C18.7959 18.694 18.1641 19.4329 17.9633 19.648C17.7742 19.863 17.5733 19.8898 17.2503 19.7283C16.9147 19.5676 15.8528 19.2178 14.5892 18.0889C13.6076 17.2145 12.949 16.1266 12.7473 15.8044C12.5598 15.468 12.7205 15.2931 12.8954 15.1316C13.0435 14.9843 13.2318 14.7424 13.3933 14.5541C13.554 14.3651 13.6076 14.2177 13.7289 14.0027C13.836 13.7876 13.7825 13.5859 13.7021 13.4252C13.621 13.2771 12.9899 11.6503 12.6937 10.9917V10.9925Z" fill="#FFFEF7"/>
</svg>
