<svg width="32" height="33" viewBox="0 0 32 33" fill="none" xmlns="http://www.w3.org/2000/svg">
<path d="M2.66675 29.8454L4.54878 23.0042C3.39238 20.9973 2.7851 18.7211 2.78807 16.4049C2.77468 9.10604 8.702 3.17871 15.9867 3.17871C19.5223 3.17871 22.842 4.54946 25.3417 7.04991C26.5738 8.27559 27.5503 9.73359 28.2149 11.3394C28.8794 12.9453 29.2186 14.667 29.2129 16.4049C29.2129 23.6896 23.2856 29.6169 16.0001 29.6169C13.7825 29.6169 11.6184 29.0655 9.6828 28.0043L2.66675 29.8454ZM9.9924 25.6252L10.3957 25.867C12.0887 26.8688 14.0195 27.398 15.9867 27.3993C22.0353 27.3993 26.9685 22.4669 26.9685 16.4175C26.9685 13.4877 25.8262 10.7194 23.7559 8.64991C22.7378 7.62608 21.5272 6.81386 20.1938 6.26006C18.8604 5.70625 17.4305 5.42181 15.9867 5.42312C9.92465 5.42391 4.99309 10.3563 4.99309 16.4057C4.99309 18.4752 5.57133 20.5053 6.67344 22.2527L6.92869 22.6694L5.81318 26.7281L9.99319 25.626L9.9924 25.6252Z" fill="#40423D"/>
<path fill-rule="evenodd" clip-rule="evenodd" d="M12.6937 10.8675C12.4519 10.3161 12.1832 10.3027 11.9548 10.3027C11.7531 10.2893 11.5373 10.2893 11.3088 10.2893C11.0945 10.2893 10.7313 10.3697 10.4225 10.706C10.1129 11.0416 9.26685 11.8349 9.26685 13.4609C9.26685 15.0877 10.4493 16.6601 10.6108 16.8752C10.7715 17.0903 12.8954 20.5306 16.2561 21.8619C19.0512 22.964 19.616 22.749 20.2211 22.6812C20.8253 22.6143 22.17 21.8887 22.4521 21.1088C22.7207 20.3431 22.7207 19.6711 22.6404 19.5364C22.56 19.4024 22.3308 19.3213 22.0085 19.1464C21.6722 18.9857 20.0596 18.179 19.7507 18.0711C19.4411 17.9639 19.2261 17.9104 19.011 18.2326C18.7959 18.569 18.1641 19.3079 17.9633 19.523C17.7742 19.738 17.5733 19.7648 17.2503 19.6033C16.9147 19.4426 15.8528 19.0928 14.5892 17.9639C13.6076 17.0895 12.949 16.0016 12.7473 15.6794C12.5598 15.343 12.7205 15.1681 12.8954 15.0066C13.0435 14.8593 13.2318 14.6174 13.3933 14.4291C13.554 14.2401 13.6076 14.0927 13.7289 13.8777C13.836 13.6626 13.7825 13.4609 13.7021 13.3002C13.621 13.1521 12.9899 11.5253 12.6937 10.8667V10.8675Z" fill="#40423D"/>
</svg>
